<svg xmlns="http://www.w3.org/2000/svg" viewBox="0 0 480 280"><rect width="480" height="280" fill="#08131d"/><path d="M40 40V242H440V40" stroke="#355264" fill="none"/><circle cx="62" cy="220" r="3.8" fill="rgb(50,135,240)"/><circle cx="62" cy="209" r="3.8" fill="rgb(55,141,240)"/><circle cx="62" cy="198" r="3.8" fill="rgb(60,147,240)"/><circle cx="62" cy="187" r="3.8" fill="rgb(65,153,240)"/><circle cx="62" cy="176" r="3.8" fill="rgb(70,159,240)"/><circle cx="62" cy="165" r="3.8" fill="rgb(75,165,240)"/><circle cx="62" cy="154" r="3.8" fill="rgb(80,171,240)"/><circle cx="62" cy="143" r="3.8" fill="rgb(85,177,240)"/><circle cx="62" cy="132" r="3.8" fill="rgb(90,183,240)"/><circle cx="62" cy="121" r="3.8" fill="rgb(95,189,240)"/><circle cx="62" cy="110" r="3.8" fill="rgb(100,195,240)"/><circle cx="62" cy="99" r="3.8" fill="rgb(105,201,240)"/><circle cx="62" cy="88" r="3.8" fill="rgb(110,207,240)"/><circle cx="62" cy="77" r="3.8" fill="rgb(115,213,240)"/><circle cx="62" cy="66" r="3.8" fill="rgb(120,219,240)"/><circle cx="74" cy="220" r="3.8" fill="rgb(50,135,240)"/><circle cx="74" cy="209" r="3.8" fill="rgb(55,141,240)"/><circle cx="74" cy="198" r="3.8" fill="rgb(60,147,240)"/><circle cx="74" cy="187" r="3.8" fill="rgb(65,153,240)"/><circle cx="74" cy="176" r="3.8" fill="rgb(70,159,240)"/><circle cx="74" cy="165" r="3.8" fill="rgb(75,165,240)"/><circle cx="74" cy="154" r="3.8" fill="rgb(80,171,240)"/><circle cx="74" cy="143" r="3.8" fill="rgb(85,177,240)"/><circle cx="74" cy="132" r="3.8" fill="rgb(90,183,240)"/><circle cx="74" cy="121" r="3.8" fill="rgb(95,189,240)"/><circle cx="74" cy="110" r="3.8" fill="rgb(100,195,240)"/><circle cx="74" cy="99" r="3.8" fill="rgb(105,201,240)"/><circle cx="74" cy="88" r="3.8" fill="rgb(110,207,240)"/><circle cx="74" cy="77" r="3.8" fill="rgb(115,213,240)"/><circle cx="74" cy="66" r="3.8" fill="rgb(120,219,240)"/><circle cx="86" cy="220" r="3.8" fill="rgb(50,135,240)"/><circle cx="86" cy="209" r="3.8" fill="rgb(55,141,240)"/><circle cx="86" cy="198" r="3.8" fill="rgb(60,147,240)"/><circle cx="86" cy="187" r="3.8" fill="rgb(65,153,240)"/><circle cx="86" cy="176" r="3.8" fill="rgb(70,159,240)"/><circle cx="86" cy="165" r="3.8" fill="rgb(75,165,240)"/><circle cx="86" cy="154" r="3.8" fill="rgb(80,171,240)"/><circle cx="86" cy="143" r="3.8" fill="rgb(85,177,240)"/><circle cx="86" cy="132" r="3.8" fill="rgb(90,183,240)"/><circle cx="86" cy="121" r="3.8" fill="rgb(95,189,240)"/><circle cx="86" cy="110" r="3.8" fill="rgb(100,195,240)"/><circle cx="86" cy="99" r="3.8" fill="rgb(105,201,240)"/><circle cx="86" cy="88" r="3.8" fill="rgb(110,207,240)"/><circle cx="86" cy="77" r="3.8" fill="rgb(115,213,240)"/><circle cx="86" cy="66" r="3.8" fill="rgb(120,219,240)"/><circle cx="98" cy="220" r="3.8" fill="rgb(50,135,240)"/><circle cx="98" cy="209" r="3.8" fill="rgb(55,141,240)"/><circle cx="98" cy="198" r="3.8" fill="rgb(60,147,240)"/><circle cx="98" cy="187" r="3.8" fill="rgb(65,153,240)"/><circle cx="98" cy="176" r="3.8" fill="rgb(70,159,240)"/><circle cx="98" cy="165" r="3.8" fill="rgb(75,165,240)"/><circle cx="98" cy="154" r="3.8" fill="rgb(80,171,240)"/><circle cx="98" cy="143" r="3.8" fill="rgb(85,177,240)"/><circle cx="98" cy="132" r="3.8" fill="rgb(90,183,240)"/><circle cx="98" cy="121" r="3.8" fill="rgb(95,189,240)"/><circle cx="98" cy="110" r="3.8" fill="rgb(100,195,240)"/><circle cx="98" cy="99" r="3.8" fill="rgb(105,201,240)"/><circle cx="98" cy="88" r="3.8" fill="rgb(110,207,240)"/><circle cx="98" cy="77" r="3.8" fill="rgb(115,213,240)"/><circle cx="98" cy="66" r="3.8" fill="rgb(120,219,240)"/><circle cx="110" cy="220" r="3.8" fill="rgb(50,135,240)"/><circle cx="110" cy="209" r="3.8" fill="rgb(55,141,240)"/><circle cx="110" cy="198" r="3.8" fill="rgb(60,147,240)"/><circle cx="110" cy="187" r="3.8" fill="rgb(65,153,240)"/><circle cx="110" cy="176" r="3.8" fill="rgb(70,159,240)"/><circle cx="110" cy="165" r="3.8" fill="rgb(75,165,240)"/><circle cx="110" cy="154" r="3.8" fill="rgb(80,171,240)"/><circle cx="110" cy="143" r="3.8" fill="rgb(85,177,240)"/><circle cx="110" cy="132" r="3.8" fill="rgb(90,183,240)"/><circle cx="110" cy="121" r="3.8" fill="rgb(95,189,240)"/><circle cx="110" cy="110" r="3.8" fill="rgb(100,195,240)"/><circle cx="110" cy="99" r="3.8" fill="rgb(105,201,240)"/><circle cx="110" cy="88" r="3.8" fill="rgb(110,207,240)"/><circle cx="110" cy="77" r="3.8" fill="rgb(115,213,240)"/><circle cx="110" cy="66" r="3.8" fill="rgb(120,219,240)"/><circle cx="122" cy="220" r="3.8" fill="rgb(50,135,240)"/><circle cx="122" cy="209" r="3.8" fill="rgb(55,141,240)"/><circle cx="122" cy="198" r="3.8" fill="rgb(60,147,240)"/><circle cx="122" cy="187" r="3.8" fill="rgb(65,153,240)"/><circle cx="122" cy="176" r="3.8" fill="rgb(70,159,240)"/><circle cx="122" cy="165" r="3.8" fill="rgb(75,165,240)"/><circle cx="122" cy="154" r="3.8" fill="rgb(80,171,240)"/><circle cx="122" cy="143" r="3.8" fill="rgb(85,177,240)"/><circle cx="122" cy="132" r="3.8" fill="rgb(90,183,240)"/><circle cx="122" cy="121" r="3.8" fill="rgb(95,189,240)"/><circle cx="122" cy="110" r="3.8" fill="rgb(100,195,240)"/><circle cx="122" cy="99" r="3.8" fill="rgb(105,201,240)"/><circle cx="122" cy="88" r="3.8" fill="rgb(110,207,240)"/><circle cx="122" cy="77" r="3.8" fill="rgb(115,213,240)"/><circle cx="122" cy="66" r="3.8" fill="rgb(120,219,240)"/><circle cx="134" cy="220" r="3.8" fill="rgb(50,135,240)"/><circle cx="134" cy="209" r="3.8" fill="rgb(55,141,240)"/><circle cx="134" cy="198" r="3.8" fill="rgb(60,147,240)"/><circle cx="134" cy="187" r="3.8" fill="rgb(65,153,240)"/><circle cx="134" cy="176" r="3.8" fill="rgb(70,159,240)"/><circle cx="134" cy="165" r="3.8" fill="rgb(75,165,240)"/><circle cx="134" cy="154" r="3.8" fill="rgb(80,171,240)"/><circle cx="134" cy="143" r="3.8" fill="rgb(85,177,240)"/><circle cx="134" cy="132" r="3.8" fill="rgb(90,183,240)"/><circle cx="134" cy="121" r="3.8" fill="rgb(95,189,240)"/><circle cx="134" cy="110" r="3.8" fill="rgb(100,195,240)"/><circle cx="134" cy="99" r="3.8" fill="rgb(105,201,240)"/><circle cx="134" cy="88" r="3.8" fill="rgb(110,207,240)"/><circle cx="134" cy="77" r="3.8" fill="rgb(115,213,240)"/><circle cx="134" cy="66" r="3.8" fill="rgb(120,219,240)"/><circle cx="146" cy="220" r="3.8" fill="rgb(50,135,240)"/><circle cx="146" cy="209" r="3.8" fill="rgb(55,141,240)"/><circle cx="146" cy="198" r="3.8" fill="rgb(60,147,240)"/><circle cx="146" cy="187" r="3.8" fill="rgb(65,153,240)"/><circle cx="146" cy="176" r="3.8" fill="rgb(70,159,240)"/><circle cx="146" cy="165" r="3.8" fill="rgb(75,165,240)"/><circle cx="146" cy="154" r="3.8" fill="rgb(80,171,240)"/><circle cx="146" cy="143" r="3.8" fill="rgb(85,177,240)"/><circle cx="146" cy="132" r="3.8" fill="rgb(90,183,240)"/><circle cx="146" cy="121" r="3.8" fill="rgb(95,189,240)"/><circle cx="146" cy="110" r="3.8" fill="rgb(100,195,240)"/><circle cx="146" cy="99" r="3.8" fill="rgb(105,201,240)"/><circle cx="146" cy="88" r="3.8" fill="rgb(110,207,240)"/><circle cx="146" cy="77" r="3.8" fill="rgb(115,213,240)"/><circle cx="146" cy="66" r="3.8" fill="rgb(120,219,240)"/><circle cx="158" cy="220" r="3.8" fill="rgb(50,135,240)"/><circle cx="158" cy="209" r="3.8" fill="rgb(55,141,240)"/><circle cx="158" cy="198" r="3.8" fill="rgb(60,147,240)"/><circle cx="158" cy="187" r="3.8" fill="rgb(65,153,240)"/><circle cx="158" cy="176" r="3.8" fill="rgb(70,159,240)"/><circle cx="158" cy="165" r="3.8" fill="rgb(75,165,240)"/><circle cx="158" cy="154" r="3.8" fill="rgb(80,171,240)"/><circle cx="158" cy="143" r="3.8" fill="rgb(85,177,240)"/><circle cx="158" cy="132" r="3.8" fill="rgb(90,183,240)"/><circle cx="158" cy="121" r="3.8" fill="rgb(95,189,240)"/><circle cx="158" cy="110" r="3.8" fill="rgb(100,195,240)"/><circle cx="158" cy="99" r="3.8" fill="rgb(105,201,240)"/><circle cx="158" cy="88" r="3.8" fill="rgb(110,207,240)"/><circle cx="158" cy="77" r="3.8" fill="rgb(115,213,240)"/><circle cx="158" cy="66" r="3.8" fill="rgb(120,219,240)"/><circle cx="170" cy="220" r="3.8" fill="rgb(50,135,240)"/><circle cx="170" cy="209" r="3.8" fill="rgb(55,141,240)"/><circle cx="170" cy="198" r="3.8" fill="rgb(60,147,240)"/><circle cx="170" cy="187" r="3.8" fill="rgb(65,153,240)"/><circle cx="170" cy="176" r="3.8" fill="rgb(70,159,240)"/><circle cx="170" cy="165" r="3.8" fill="rgb(75,165,240)"/><circle cx="170" cy="154" r="3.8" fill="rgb(80,171,240)"/><circle cx="170" cy="143" r="3.8" fill="rgb(85,177,240)"/><circle cx="170" cy="132" r="3.8" fill="rgb(90,183,240)"/><circle cx="170" cy="121" r="3.8" fill="rgb(95,189,240)"/><circle cx="182" cy="220" r="3.8" fill="rgb(50,135,240)"/><circle cx="182" cy="209" r="3.8" fill="rgb(55,141,240)"/><circle cx="182" cy="198" r="3.8" fill="rgb(60,147,240)"/><circle cx="182" cy="187" r="3.8" fill="rgb(65,153,240)"/><circle cx="182" cy="176" r="3.8" fill="rgb(70,159,240)"/><circle cx="182" cy="165" r="3.8" fill="rgb(75,165,240)"/><circle cx="182" cy="154" r="3.8" fill="rgb(80,171,240)"/><circle cx="182" cy="143" r="3.8" fill="rgb(85,177,240)"/><circle cx="182" cy="132" r="3.8" fill="rgb(90,183,240)"/><circle cx="194" cy="220" r="3.8" fill="rgb(50,135,240)"/><circle cx="194" cy="209" r="3.8" fill="rgb(55,141,240)"/><circle cx="194" cy="198" r="3.8" fill="rgb(60,147,240)"/><circle cx="194" cy="187" r="3.8" fill="rgb(65,153,240)"/><circle cx="194" cy="176" r="3.8" fill="rgb(70,159,240)"/><circle cx="194" cy="165" r="3.8" fill="rgb(75,165,240)"/><circle cx="194" cy="154" r="3.8" fill="rgb(80,171,240)"/><circle cx="194" cy="143" r="3.8" fill="rgb(85,177,240)"/><circle cx="194" cy="132" r="3.8" fill="rgb(90,183,240)"/><circle cx="206" cy="220" r="3.8" fill="rgb(50,135,240)"/><circle cx="206" cy="209" r="3.8" fill="rgb(55,141,240)"/><circle cx="206" cy="198" r="3.8" fill="rgb(60,147,240)"/><circle cx="206" cy="187" r="3.8" fill="rgb(65,153,240)"/><circle cx="206" cy="176" r="3.8" fill="rgb(70,159,240)"/><circle cx="206" cy="165" r="3.8" fill="rgb(75,165,240)"/><circle cx="206" cy="154" r="3.8" fill="rgb(80,171,240)"/><circle cx="206" cy="143" r="3.8" fill="rgb(85,177,240)"/><circle cx="218" cy="220" r="3.8" fill="rgb(50,135,240)"/><circle cx="218" cy="209" r="3.8" fill="rgb(55,141,240)"/><circle cx="218" cy="198" r="3.8" fill="rgb(60,147,240)"/><circle cx="218" cy="187" r="3.8" fill="rgb(65,153,240)"/><circle cx="218" cy="176" r="3.8" fill="rgb(70,159,240)"/><circle cx="218" cy="165" r="3.8" fill="rgb(75,165,240)"/><circle cx="218" cy="154" r="3.8" fill="rgb(80,171,240)"/><circle cx="218" cy="143" r="3.8" fill="rgb(85,177,240)"/><circle cx="230" cy="220" r="3.8" fill="rgb(50,135,240)"/><circle cx="230" cy="209" r="3.8" fill="rgb(55,141,240)"/><circle cx="230" cy="198" r="3.8" fill="rgb(60,147,240)"/><circle cx="230" cy="187" r="3.8" fill="rgb(65,153,240)"/><circle cx="230" cy="176" r="3.8" fill="rgb(70,159,240)"/><circle cx="230" cy="165" r="3.8" fill="rgb(75,165,240)"/><circle cx="230" cy="154" r="3.8" fill="rgb(80,171,240)"/><circle cx="242" cy="220" r="3.8" fill="rgb(50,135,240)"/><circle cx="242" cy="209" r="3.8" fill="rgb(55,141,240)"/><circle cx="242" cy="198" r="3.8" fill="rgb(60,147,240)"/><circle cx="242" cy="187" r="3.8" fill="rgb(65,153,240)"/><circle cx="242" cy="176" r="3.8" fill="rgb(70,159,240)"/><circle cx="242" cy="165" r="3.8" fill="rgb(75,165,240)"/><circle cx="242" cy="154" r="3.8" fill="rgb(80,171,240)"/><circle cx="254" cy="220" r="3.8" fill="rgb(50,135,240)"/><circle cx="254" cy="209" r="3.8" fill="rgb(55,141,240)"/><circle cx="254" cy="198" r="3.8" fill="rgb(60,147,240)"/><circle cx="254" cy="187" r="3.8" fill="rgb(65,153,240)"/><circle cx="254" cy="176" r="3.8" fill="rgb(70,159,240)"/><circle cx="254" cy="165" r="3.8" fill="rgb(75,165,240)"/><circle cx="266" cy="220" r="3.8" fill="rgb(50,135,240)"/><circle cx="266" cy="209" r="3.8" fill="rgb(55,141,240)"/><circle cx="266" cy="198" r="3.8" fill="rgb(60,147,240)"/><circle cx="266" cy="187" r="3.8" fill="rgb(65,153,240)"/><circle cx="266" cy="176" r="3.8" fill="rgb(70,159,240)"/><circle cx="266" cy="165" r="3.8" fill="rgb(75,165,240)"/><circle cx="278" cy="220" r="3.8" fill="rgb(50,135,240)"/><circle cx="278" cy="209" r="3.8" fill="rgb(55,141,240)"/><circle cx="278" cy="198" r="3.8" fill="rgb(60,147,240)"/><circle cx="278" cy="187" r="3.8" fill="rgb(65,153,240)"/><circle cx="278" cy="176" r="3.8" fill="rgb(70,159,240)"/><circle cx="290" cy="220" r="3.8" fill="rgb(50,135,240)"/><circle cx="290" cy="209" r="3.8" fill="rgb(55,141,240)"/><circle cx="290" cy="198" r="3.8" fill="rgb(60,147,240)"/><circle cx="290" cy="187" r="3.8" fill="rgb(65,153,240)"/><circle cx="290" cy="176" r="3.8" fill="rgb(70,159,240)"/><circle cx="302" cy="220" r="3.8" fill="rgb(50,135,240)"/><circle cx="302" cy="209" r="3.8" fill="rgb(55,141,240)"/><circle cx="302" cy="198" r="3.8" fill="rgb(60,147,240)"/><circle cx="302" cy="187" r="3.8" fill="rgb(65,153,240)"/><circle cx="314" cy="220" r="3.8" fill="rgb(50,135,240)"/><circle cx="314" cy="209" r="3.8" fill="rgb(55,141,240)"/><circle cx="314" cy="198" r="3.8" fill="rgb(60,147,240)"/><circle cx="314" cy="187" r="3.8" fill="rgb(65,153,240)"/><circle cx="326" cy="220" r="3.8" fill="rgb(50,135,240)"/><circle cx="326" cy="209" r="3.8" fill="rgb(55,141,240)"/><circle cx="326" cy="198" r="3.8" fill="rgb(60,147,240)"/><circle cx="326" cy="187" r="3.8" fill="rgb(65,153,240)"/><circle cx="338" cy="220" r="3.8" fill="rgb(50,135,240)"/><circle cx="338" cy="209" r="3.8" fill="rgb(55,141,240)"/><circle cx="338" cy="198" r="3.8" fill="rgb(60,147,240)"/><circle cx="338" cy="187" r="3.8" fill="rgb(65,153,240)"/><circle cx="350" cy="220" r="3.8" fill="rgb(50,135,240)"/><circle cx="350" cy="209" r="3.8" fill="rgb(55,141,240)"/><circle cx="350" cy="198" r="3.8" fill="rgb(60,147,240)"/><circle cx="350" cy="187" r="3.8" fill="rgb(65,153,240)"/><circle cx="362" cy="220" r="3.8" fill="rgb(50,135,240)"/><circle cx="362" cy="209" r="3.8" fill="rgb(55,141,240)"/><circle cx="362" cy="198" r="3.8" fill="rgb(60,147,240)"/><circle cx="362" cy="187" r="3.8" fill="rgb(65,153,240)"/><text x="30" y="28" fill="#94deee" font-family="monospace" font-size="11">CHRONO / SPH DAM-BREAK</text></svg>