<svg xmlns="http://www.w3.org/2000/svg" viewBox="0 0 780 480"><rect width="780" height="480" fill="#0a1820"/><rect x="46" y="98" width="238" height="292" rx="16" fill="#102a35"/><rect x="75" y="130" width="13" height="13" rx="2" fill="#56aac8"/><rect x="94" y="130" width="13" height="13" rx="2" fill="#355467"/><rect x="113" y="130" width="13" height="13" rx="2" fill="#d5ab77"/><rect x="132" y="130" width="13" height="13" rx="2" fill="#90e7d1"/><rect x="151" y="130" width="13" height="13" rx="2" fill="#56aac8"/><rect x="170" y="130" width="13" height="13" rx="2" fill="#355467"/><rect x="189" y="130" width="13" height="13" rx="2" fill="#d5ab77"/><rect x="208" y="130" width="13" height="13" rx="2" fill="#90e7d1"/><rect x="227" y="130" width="13" height="13" rx="2" fill="#56aac8"/><rect x="75" y="149" width="13" height="13" rx="2" fill="#56aac8"/><rect x="94" y="149" width="13" height="13" rx="2" fill="#355467"/><rect x="113" y="149" width="13" height="13" rx="2" fill="#d5ab77"/><rect x="132" y="149" width="13" height="13" rx="2" fill="#90e7d1"/><rect x="151" y="149" width="13" height="13" rx="2" fill="#56aac8"/><rect x="170" y="149" width="13" height="13" rx="2" fill="#355467"/><rect x="189" y="149" width="13" height="13" rx="2" fill="#d5ab77"/><rect x="208" y="149" width="13" height="13" rx="2" fill="#90e7d1"/><rect x="227" y="149" width="13" height="13" rx="2" fill="#56aac8"/><rect x="75" y="168" width="13" height="13" rx="2" fill="#56aac8"/><rect x="94" y="168" width="13" height="13" rx="2" fill="#355467"/><rect x="113" y="168" width="13" height="13" rx="2" fill="#d5ab77"/><rect x="132" y="168" width="13" height="13" rx="2" fill="#90e7d1"/><rect x="151" y="168" width="13" height="13" rx="2" fill="#56aac8"/><rect x="170" y="168" width="13" height="13" rx="2" fill="#355467"/><rect x="189" y="168" width="13" height="13" rx="2" fill="#d5ab77"/><rect x="208" y="168" width="13" height="13" rx="2" fill="#90e7d1"/><rect x="227" y="168" width="13" height="13" rx="2" fill="#56aac8"/><rect x="75" y="187" width="13" height="13" rx="2" fill="#56aac8"/><rect x="94" y="187" width="13" height="13" rx="2" fill="#355467"/><rect x="113" y="187" width="13" height="13" rx="2" fill="#d5ab77"/><rect x="132" y="187" width="13" height="13" rx="2" fill="#90e7d1"/><rect x="151" y="187" width="13" height="13" rx="2" fill="#56aac8"/><rect x="170" y="187" width="13" height="13" rx="2" fill="#355467"/><rect x="189" y="187" width="13" height="13" rx="2" fill="#d5ab77"/><rect x="208" y="187" width="13" height="13" rx="2" fill="#90e7d1"/><rect x="227" y="187" width="13" height="13" rx="2" fill="#56aac8"/><rect x="75" y="206" width="13" height="13" rx="2" fill="#56aac8"/><rect x="94" y="206" width="13" height="13" rx="2" fill="#355467"/><rect x="113" y="206" width="13" height="13" rx="2" fill="#d5ab77"/><rect x="132" y="206" width="13" height="13" rx="2" fill="#90e7d1"/><rect x="151" y="206" width="13" height="13" rx="2" fill="#56aac8"/><rect x="170" y="206" width="13" height="13" rx="2" fill="#355467"/><rect x="189" y="206" width="13" height="13" rx="2" fill="#d5ab77"/><rect x="208" y="206" width="13" height="13" rx="2" fill="#90e7d1"/><rect x="227" y="206" width="13" height="13" rx="2" fill="#56aac8"/><rect x="75" y="225" width="13" height="13" rx="2" fill="#56aac8"/><rect x="94" y="225" width="13" height="13" rx="2" fill="#355467"/><rect x="113" y="225" width="13" height="13" rx="2" fill="#d5ab77"/><rect x="132" y="225" width="13" height="13" rx="2" fill="#90e7d1"/><rect x="151" y="225" width="13" height="13" rx="2" fill="#56aac8"/><rect x="170" y="225" width="13" height="13" rx="2" fill="#355467"/><rect x="189" y="225" width="13" height="13" rx="2" fill="#d5ab77"/><rect x="208" y="225" width="13" height="13" rx="2" fill="#90e7d1"/><rect x="227" y="225" width="13" height="13" rx="2" fill="#56aac8"/><rect x="75" y="244" width="13" height="13" rx="2" fill="#56aac8"/><rect x="94" y="244" width="13" height="13" rx="2" fill="#355467"/><rect x="113" y="244" width="13" height="13" rx="2" fill="#d5ab77"/><rect x="132" y="244" width="13" height="13" rx="2" fill="#90e7d1"/><rect x="151" y="244" width="13" height="13" rx="2" fill="#56aac8"/><rect x="170" y="244" width="13" height="13" rx="2" fill="#355467"/><rect x="189" y="244" width="13" height="13" rx="2" fill="#d5ab77"/><rect x="208" y="244" width="13" height="13" rx="2" fill="#90e7d1"/><rect x="227" y="244" width="13" height="13" rx="2" fill="#56aac8"/><rect x="75" y="263" width="13" height="13" rx="2" fill="#56aac8"/><rect x="94" y="263" width="13" height="13" rx="2" fill="#355467"/><rect x="113" y="263" width="13" height="13" rx="2" fill="#d5ab77"/><rect x="132" y="263" width="13" height="13" rx="2" fill="#90e7d1"/><rect x="151" y="263" width="13" height="13" rx="2" fill="#56aac8"/><rect x="170" y="263" width="13" height="13" rx="2" fill="#355467"/><rect x="189" y="263" width="13" height="13" rx="2" fill="#d5ab77"/><rect x="208" y="263" width="13" height="13" rx="2" fill="#90e7d1"/><rect x="227" y="263" width="13" height="13" rx="2" fill="#56aac8"/><rect x="75" y="282" width="13" height="13" rx="2" fill="#56aac8"/><rect x="94" y="282" width="13" height="13" rx="2" fill="#355467"/><rect x="113" y="282" width="13" height="13" rx="2" fill="#d5ab77"/><rect x="132" y="282" width="13" height="13" rx="2" fill="#90e7d1"/><rect x="151" y="282" width="13" height="13" rx="2" fill="#56aac8"/><rect x="170" y="282" width="13" height="13" rx="2" fill="#355467"/><rect x="189" y="282" width="13" height="13" rx="2" fill="#d5ab77"/><rect x="208" y="282" width="13" height="13" rx="2" fill="#90e7d1"/><rect x="227" y="282" width="13" height="13" rx="2" fill="#56aac8"/><rect x="75" y="301" width="13" height="13" rx="2" fill="#56aac8"/><rect x="94" y="301" width="13" height="13" rx="2" fill="#355467"/><rect x="113" y="301" width="13" height="13" rx="2" fill="#d5ab77"/><rect x="132" y="301" width="13" height="13" rx="2" fill="#90e7d1"/><rect x="151" y="301" width="13" height="13" rx="2" fill="#56aac8"/><rect x="170" y="301" width="13" height="13" rx="2" fill="#355467"/><rect x="189" y="301" width="13" height="13" rx="2" fill="#d5ab77"/><rect x="208" y="301" width="13" height="13" rx="2" fill="#90e7d1"/><rect x="227" y="301" width="13" height="13" rx="2" fill="#56aac8"/><rect x="75" y="320" width="13" height="13" rx="2" fill="#56aac8"/><rect x="94" y="320" width="13" height="13" rx="2" fill="#355467"/><rect x="113" y="320" width="13" height="13" rx="2" fill="#d5ab77"/><rect x="132" y="320" width="13" height="13" rx="2" fill="#90e7d1"/><rect x="151" y="320" width="13" height="13" rx="2" fill="#56aac8"/><rect x="170" y="320" width="13" height="13" rx="2" fill="#355467"/><rect x="189" y="320" width="13" height="13" rx="2" fill="#d5ab77"/><rect x="208" y="320" width="13" height="13" rx="2" fill="#90e7d1"/><rect x="227" y="320" width="13" height="13" rx="2" fill="#56aac8"/><path d="M331 244H430m-22-22 22 22-22 22" fill="none" stroke="#91ebcf" stroke-width="5"/><rect x="478" y="98" width="238" height="292" rx="16" fill="#102a35"/><circle cx="597" cy="211" r="57" fill="#729caf"/><path d="M511 367Q516 276 597 276Q677 276 683 367" fill="#8ad8c1"/><path d="M541 202Q556 135 613 149Q655 153 656 197" fill="#d2ad78"/><text x="48" y="64" font-family="monospace" font-size="19" fill="#a3d4d7">KNN / ORIGINAL NVIDIA DENOISER</text><text x="65" y="431" font-family="monospace" font-size="16" fill="#91b4c0">NOISY INPUT</text><text x="493" y="431" font-family="monospace" font-size="16" fill="#91b4c0">WEIGHTED OUTPUT</text></svg>