<svg xmlns="http://www.w3.org/2000/svg" viewBox="0 0 640 360"><rect width="640" height="360" fill="#081219"/><path d="M50 65h540" stroke="#244453"/><path d="M50 93h540" stroke="#244453"/><path d="M50 121h540" stroke="#244453"/><path d="M50 149h540" stroke="#244453"/><path d="M50 177h540" stroke="#244453"/><path d="M50 205h540" stroke="#244453"/><path d="M50 233h540" stroke="#244453"/><path d="M50 261h540" stroke="#244453"/><path d="M85 65v28" stroke="#94eed6" stroke-width="3"/><circle cx="85" cy="65" r="4" fill="#94eed6"/><circle cx="85" cy="93" r="4" fill="#449fdc"/><path d="M85 121v28" stroke="#94eed6" stroke-width="3"/><circle cx="85" cy="121" r="4" fill="#94eed6"/><circle cx="85" cy="149" r="4" fill="#449fdc"/><path d="M85 177v28" stroke="#94eed6" stroke-width="3"/><circle cx="85" cy="177" r="4" fill="#94eed6"/><circle cx="85" cy="205" r="4" fill="#449fdc"/><path d="M85 233v28" stroke="#94eed6" stroke-width="3"/><circle cx="85" cy="233" r="4" fill="#94eed6"/><circle cx="85" cy="261" r="4" fill="#449fdc"/><path d="M151 93v28" stroke="#94eed6" stroke-width="3"/><circle cx="151" cy="93" r="4" fill="#94eed6"/><circle cx="151" cy="121" r="4" fill="#449fdc"/><path d="M151 149v28" stroke="#94eed6" stroke-width="3"/><circle cx="151" cy="149" r="4" fill="#94eed6"/><circle cx="151" cy="177" r="4" fill="#449fdc"/><path d="M151 205v28" stroke="#94eed6" stroke-width="3"/><circle cx="151" cy="205" r="4" fill="#94eed6"/><circle cx="151" cy="233" r="4" fill="#449fdc"/><path d="M217 65v28" stroke="#94eed6" stroke-width="3"/><circle cx="217" cy="65" r="4" fill="#94eed6"/><circle cx="217" cy="93" r="4" fill="#449fdc"/><path d="M217 121v28" stroke="#94eed6" stroke-width="3"/><circle cx="217" cy="121" r="4" fill="#94eed6"/><circle cx="217" cy="149" r="4" fill="#449fdc"/><path d="M217 177v28" stroke="#94eed6" stroke-width="3"/><circle cx="217" cy="177" r="4" fill="#94eed6"/><circle cx="217" cy="205" r="4" fill="#449fdc"/><path d="M217 233v28" stroke="#94eed6" stroke-width="3"/><circle cx="217" cy="233" r="4" fill="#94eed6"/><circle cx="217" cy="261" r="4" fill="#449fdc"/><path d="M283 93v28" stroke="#94eed6" stroke-width="3"/><circle cx="283" cy="93" r="4" fill="#94eed6"/><circle cx="283" cy="121" r="4" fill="#449fdc"/><path d="M283 149v28" stroke="#94eed6" stroke-width="3"/><circle cx="283" cy="149" r="4" fill="#94eed6"/><circle cx="283" cy="177" r="4" fill="#449fdc"/><path d="M283 205v28" stroke="#94eed6" stroke-width="3"/><circle cx="283" cy="205" r="4" fill="#94eed6"/><circle cx="283" cy="233" r="4" fill="#449fdc"/><path d="M349 65v28" stroke="#94eed6" stroke-width="3"/><circle cx="349" cy="65" r="4" fill="#94eed6"/><circle cx="349" cy="93" r="4" fill="#449fdc"/><path d="M349 121v28" stroke="#94eed6" stroke-width="3"/><circle cx="349" cy="121" r="4" fill="#94eed6"/><circle cx="349" cy="149" r="4" fill="#449fdc"/><path d="M349 177v28" stroke="#94eed6" stroke-width="3"/><circle cx="349" cy="177" r="4" fill="#94eed6"/><circle cx="349" cy="205" r="4" fill="#449fdc"/><path d="M349 233v28" stroke="#94eed6" stroke-width="3"/><circle cx="349" cy="233" r="4" fill="#94eed6"/><circle cx="349" cy="261" r="4" fill="#449fdc"/><path d="M415 93v28" stroke="#94eed6" stroke-width="3"/><circle cx="415" cy="93" r="4" fill="#94eed6"/><circle cx="415" cy="121" r="4" fill="#449fdc"/><path d="M415 149v28" stroke="#94eed6" stroke-width="3"/><circle cx="415" cy="149" r="4" fill="#94eed6"/><circle cx="415" cy="177" r="4" fill="#449fdc"/><path d="M415 205v28" stroke="#94eed6" stroke-width="3"/><circle cx="415" cy="205" r="4" fill="#94eed6"/><circle cx="415" cy="233" r="4" fill="#449fdc"/><path d="M481 65v28" stroke="#94eed6" stroke-width="3"/><circle cx="481" cy="65" r="4" fill="#94eed6"/><circle cx="481" cy="93" r="4" fill="#449fdc"/><path d="M481 121v28" stroke="#94eed6" stroke-width="3"/><circle cx="481" cy="121" r="4" fill="#94eed6"/><circle cx="481" cy="149" r="4" fill="#449fdc"/><path d="M481 177v28" stroke="#94eed6" stroke-width="3"/><circle cx="481" cy="177" r="4" fill="#94eed6"/><circle cx="481" cy="205" r="4" fill="#449fdc"/><path d="M481 233v28" stroke="#94eed6" stroke-width="3"/><circle cx="481" cy="233" r="4" fill="#94eed6"/><circle cx="481" cy="261" r="4" fill="#449fdc"/><path d="M547 93v28" stroke="#94eed6" stroke-width="3"/><circle cx="547" cy="93" r="4" fill="#94eed6"/><circle cx="547" cy="121" r="4" fill="#449fdc"/><path d="M547 149v28" stroke="#94eed6" stroke-width="3"/><circle cx="547" cy="149" r="4" fill="#94eed6"/><circle cx="547" cy="177" r="4" fill="#449fdc"/><path d="M547 205v28" stroke="#94eed6" stroke-width="3"/><circle cx="547" cy="205" r="4" fill="#94eed6"/><circle cx="547" cy="233" r="4" fill="#449fdc"/><text x="48" y="322" font-family="monospace" font-size="14" fill="#94eed6">ODD / EVEN MERGE NETWORK</text></svg>