<svg xmlns="http://www.w3.org/2000/svg" viewBox="0 0 640 360"><defs><radialGradient id="s" cx=".3" cy=".2"><stop stop-color="#c4ffee"/><stop offset=".55" stop-color="#68d6ce"/><stop offset="1" stop-color="#216791"/></radialGradient></defs><rect width="640" height="360" fill="#081219"/><path d="M75 280 320 165 565 280 320 340Z" fill="#10252f" stroke="#285363"/><circle cx="205" cy="80" r="13" fill="url(#s)"/><circle cx="236" cy="80" r="13" fill="url(#s)"/><circle cx="267" cy="80" r="13" fill="url(#s)"/><circle cx="298" cy="80" r="13" fill="url(#s)"/><circle cx="329" cy="80" r="13" fill="url(#s)"/><circle cx="360" cy="80" r="13" fill="url(#s)"/><circle cx="391" cy="80" r="13" fill="url(#s)"/><circle cx="422" cy="80" r="13" fill="url(#s)"/><circle cx="212" cy="115" r="13" fill="url(#s)"/><circle cx="243" cy="115" r="13" fill="url(#s)"/><circle cx="274" cy="115" r="13" fill="url(#s)"/><circle cx="305" cy="115" r="13" fill="url(#s)"/><circle cx="336" cy="115" r="13" fill="url(#s)"/><circle cx="367" cy="115" r="13" fill="url(#s)"/><circle cx="398" cy="115" r="13" fill="url(#s)"/><circle cx="429" cy="115" r="13" fill="url(#s)"/><circle cx="219" cy="150" r="13" fill="url(#s)"/><circle cx="250" cy="150" r="13" fill="url(#s)"/><circle cx="281" cy="150" r="13" fill="url(#s)"/><circle cx="312" cy="150" r="13" fill="url(#s)"/><circle cx="343" cy="150" r="13" fill="url(#s)"/><circle cx="374" cy="150" r="13" fill="url(#s)"/><circle cx="405" cy="150" r="13" fill="url(#s)"/><circle cx="436" cy="150" r="13" fill="url(#s)"/><circle cx="226" cy="170" r="13" fill="url(#s)"/><circle cx="257" cy="170" r="13" fill="url(#s)"/><circle cx="288" cy="170" r="13" fill="url(#s)"/><circle cx="319" cy="170" r="13" fill="url(#s)"/><circle cx="350" cy="170" r="13" fill="url(#s)"/><circle cx="381" cy="170" r="13" fill="url(#s)"/><circle cx="412" cy="170" r="13" fill="url(#s)"/><circle cx="443" cy="170" r="13" fill="url(#s)"/><circle cx="233" cy="205" r="13" fill="url(#s)"/><circle cx="264" cy="205" r="13" fill="url(#s)"/><circle cx="295" cy="205" r="13" fill="url(#s)"/><circle cx="326" cy="205" r="13" fill="url(#s)"/><circle cx="357" cy="205" r="13" fill="url(#s)"/><circle cx="388" cy="205" r="13" fill="url(#s)"/><circle cx="419" cy="205" r="13" fill="url(#s)"/><circle cx="450" cy="205" r="13" fill="url(#s)"/><text x="65" y="42" fill="#9cc6d4" font-family="monospace" font-size="14">INTEGRATE → SORT → COLLIDE</text></svg>