<svg xmlns="http://www.w3.org/2000/svg" viewBox="0 0 640 360"><rect width="640" height="360" fill="#081219"/><circle cx="320" cy="90" r="1.6" fill="#91ecd6"/><circle cx="336" cy="95" r="1.6" fill="#91ecd6"/><circle cx="352" cy="100" r="1.6" fill="#91ecd6"/><circle cx="368" cy="105" r="1.6" fill="#91ecd6"/><circle cx="384" cy="110" r="1.6" fill="#91ecd6"/><circle cx="400" cy="115" r="1.6" fill="#91ecd6"/><circle cx="416" cy="120" r="1.6" fill="#91ecd6"/><circle cx="432" cy="125" r="1.6" fill="#91ecd6"/><circle cx="448" cy="130" r="1.6" fill="#91ecd6"/><circle cx="320" cy="106" r="1.6" fill="#91ecd6"/><circle cx="336" cy="111" r="1.6" fill="#91ecd6"/><circle cx="352" cy="116" r="1.6" fill="#91ecd6"/><circle cx="368" cy="121" r="1.6" fill="#91ecd6"/><circle cx="384" cy="126" r="1.6" fill="#91ecd6"/><circle cx="400" cy="131" r="1.6" fill="#91ecd6"/><circle cx="416" cy="136" r="1.6" fill="#91ecd6"/><circle cx="432" cy="141" r="1.6" fill="#91ecd6"/><circle cx="448" cy="146" r="1.6" fill="#91ecd6"/><circle cx="320" cy="122" r="1.6" fill="#91ecd6"/><circle cx="336" cy="127" r="1.6" fill="#91ecd6"/><circle cx="352" cy="132" r="1.6" fill="#91ecd6"/><circle cx="368" cy="137" r="1.6" fill="#91ecd6"/><circle cx="384" cy="142" r="1.6" fill="#91ecd6"/><circle cx="400" cy="147" r="1.6" fill="#91ecd6"/><circle cx="416" cy="152" r="1.6" fill="#91ecd6"/><circle cx="432" cy="157" r="1.6" fill="#91ecd6"/><circle cx="448" cy="162" r="1.6" fill="#91ecd6"/><circle cx="320" cy="138" r="1.6" fill="#91ecd6"/><circle cx="336" cy="143" r="1.6" fill="#91ecd6"/><circle cx="352" cy="148" r="1.6" fill="#91ecd6"/><circle cx="368" cy="153" r="1.6" fill="#91ecd6"/><circle cx="384" cy="158" r="1.6" fill="#91ecd6"/><circle cx="400" cy="163" r="1.6" fill="#91ecd6"/><circle cx="416" cy="168" r="1.6" fill="#91ecd6"/><circle cx="432" cy="173" r="1.6" fill="#91ecd6"/><circle cx="448" cy="178" r="1.6" fill="#91ecd6"/><circle cx="320" cy="154" r="1.6" fill="#42a8db"/><circle cx="336" cy="159" r="1.6" fill="#42a8db"/><circle cx="352" cy="164" r="1.6" fill="#42a8db"/><circle cx="368" cy="169" r="1.6" fill="#42a8db"/><circle cx="384" cy="174" r="1.6" fill="#42a8db"/><circle cx="400" cy="179" r="1.6" fill="#42a8db"/><circle cx="416" cy="184" r="1.6" fill="#42a8db"/><circle cx="432" cy="189" r="1.6" fill="#42a8db"/><circle cx="448" cy="194" r="1.6" fill="#42a8db"/><circle cx="320" cy="170" r="1.6" fill="#42a8db"/><circle cx="336" cy="175" r="1.6" fill="#42a8db"/><circle cx="352" cy="180" r="1.6" fill="#42a8db"/><circle cx="368" cy="185" r="1.6" fill="#42a8db"/><circle cx="384" cy="190" r="1.6" fill="#42a8db"/><circle cx="400" cy="195" r="1.6" fill="#42a8db"/><circle cx="416" cy="200" r="1.6" fill="#42a8db"/><circle cx="432" cy="205" r="1.6" fill="#42a8db"/><circle cx="448" cy="210" r="1.6" fill="#42a8db"/><circle cx="320" cy="186" r="1.6" fill="#42a8db"/><circle cx="336" cy="191" r="1.6" fill="#42a8db"/><circle cx="352" cy="196" r="1.6" fill="#42a8db"/><circle cx="368" cy="201" r="1.6" fill="#42a8db"/><circle cx="384" cy="206" r="1.6" fill="#42a8db"/><circle cx="400" cy="211" r="1.6" fill="#42a8db"/><circle cx="416" cy="216" r="1.6" fill="#42a8db"/><circle cx="432" cy="221" r="1.6" fill="#42a8db"/><circle cx="448" cy="226" r="1.6" fill="#42a8db"/><circle cx="320" cy="202" r="1.6" fill="#42a8db"/><circle cx="336" cy="207" r="1.6" fill="#42a8db"/><circle cx="352" cy="212" r="1.6" fill="#42a8db"/><circle cx="368" cy="217" r="1.6" fill="#42a8db"/><circle cx="384" cy="222" r="1.6" fill="#42a8db"/><circle cx="400" cy="227" r="1.6" fill="#42a8db"/><circle cx="416" cy="232" r="1.6" fill="#42a8db"/><circle cx="432" cy="237" r="1.6" fill="#42a8db"/><circle cx="448" cy="242" r="1.6" fill="#42a8db"/><circle cx="320" cy="218" r="1.6" fill="#42a8db"/><circle cx="336" cy="223" r="1.6" fill="#42a8db"/><circle cx="352" cy="228" r="1.6" fill="#42a8db"/><circle cx="368" cy="233" r="1.6" fill="#42a8db"/><circle cx="384" cy="238" r="1.6" fill="#42a8db"/><circle cx="400" cy="243" r="1.6" fill="#42a8db"/><circle cx="416" cy="248" r="1.6" fill="#42a8db"/><circle cx="432" cy="253" r="1.6" fill="#42a8db"/><circle cx="448" cy="258" r="1.6" fill="#42a8db"/><circle cx="304" cy="95" r="1.6" fill="#91ecd6"/><circle cx="320" cy="100" r="1.6" fill="#91ecd6"/><circle cx="336" cy="105" r="1.6" fill="#91ecd6"/><circle cx="352" cy="110" r="1.6" fill="#91ecd6"/><circle cx="368" cy="115" r="1.6" fill="#91ecd6"/><circle cx="384" cy="120" r="1.6" fill="#91ecd6"/><circle cx="400" cy="125" r="1.6" fill="#91ecd6"/><circle cx="416" cy="130" r="1.6" fill="#91ecd6"/><circle cx="432" cy="135" r="1.6" fill="#91ecd6"/><circle cx="304" cy="111" r="1.6" fill="#91ecd6"/><circle cx="320" cy="116" r="1.6" fill="#91ecd6"/><circle cx="336" cy="121" r="1.6" fill="#91ecd6"/><circle cx="352" cy="126" r="1.6" fill="#91ecd6"/><circle cx="368" cy="131" r="1.6" fill="#91ecd6"/><circle cx="384" cy="136" r="1.6" fill="#91ecd6"/><circle cx="400" cy="141" r="1.6" fill="#91ecd6"/><circle cx="416" cy="146" r="1.6" fill="#91ecd6"/><circle cx="432" cy="151" r="1.6" fill="#91ecd6"/><circle cx="304" cy="127" r="1.6" fill="#91ecd6"/><circle cx="320" cy="132" r="1.6" fill="#91ecd6"/><circle cx="336" cy="137" r="1.6" fill="#91ecd6"/><circle cx="352" cy="142" r="1.6" fill="#91ecd6"/><circle cx="368" cy="147" r="1.6" fill="#91ecd6"/><circle cx="384" cy="152" r="1.6" fill="#91ecd6"/><circle cx="400" cy="157" r="1.6" fill="#91ecd6"/><circle cx="416" cy="162" r="1.6" fill="#91ecd6"/><circle cx="432" cy="167" r="1.6" fill="#91ecd6"/><circle cx="304" cy="143" r="1.6" fill="#91ecd6"/><circle cx="320" cy="148" r="1.6" fill="#91ecd6"/><circle cx="336" cy="153" r="1.6" fill="#91ecd6"/><circle cx="352" cy="158" r="1.6" fill="#91ecd6"/><circle cx="368" cy="163" r="1.6" fill="#91ecd6"/><circle cx="384" cy="168" r="1.6" fill="#91ecd6"/><circle cx="400" cy="173" r="1.6" fill="#91ecd6"/><circle cx="416" cy="178" r="1.6" fill="#91ecd6"/><circle cx="432" cy="183" r="1.6" fill="#91ecd6"/><circle cx="304" cy="159" r="1.6" fill="#42a8db"/><circle cx="320" cy="164" r="1.6" fill="#42a8db"/><circle cx="336" cy="169" r="1.6" fill="#42a8db"/><circle cx="352" cy="174" r="1.6" fill="#42a8db"/><circle cx="368" cy="179" r="1.6" fill="#42a8db"/><circle cx="384" cy="184" r="1.6" fill="#42a8db"/><circle cx="400" cy="189" r="1.6" fill="#42a8db"/><circle cx="416" cy="194" r="1.6" fill="#42a8db"/><circle cx="432" cy="199" r="1.6" fill="#42a8db"/><circle cx="304" cy="175" r="1.6" fill="#42a8db"/><circle cx="320" cy="180" r="1.6" fill="#42a8db"/><circle cx="336" cy="185" r="1.6" fill="#42a8db"/><circle cx="352" cy="190" r="1.6" fill="#42a8db"/><circle cx="368" cy="195" r="1.6" fill="#42a8db"/><circle cx="384" cy="200" r="1.6" fill="#42a8db"/><circle cx="400" cy="205" r="1.6" fill="#42a8db"/><circle cx="416" cy="210" r="1.6" fill="#42a8db"/><circle cx="432" cy="215" r="1.6" fill="#42a8db"/><circle cx="304" cy="191" r="1.6" fill="#42a8db"/><circle cx="320" cy="196" r="1.6" fill="#42a8db"/><circle cx="336" cy="201" r="1.6" fill="#42a8db"/><circle cx="352" cy="206" r="1.6" fill="#42a8db"/><circle cx="368" cy="211" r="1.6" fill="#42a8db"/><circle cx="384" cy="216" r="1.6" fill="#42a8db"/><circle cx="400" cy="221" r="1.6" fill="#42a8db"/><circle cx="416" cy="226" r="1.6" fill="#42a8db"/><circle cx="432" cy="231" r="1.6" fill="#42a8db"/><circle cx="304" cy="207" r="1.6" fill="#42a8db"/><circle cx="320" cy="212" r="1.6" fill="#42a8db"/><circle cx="336" cy="217" r="1.6" fill="#42a8db"/><circle cx="352" cy="222" r="1.6" fill="#42a8db"/><circle cx="368" cy="227" r="1.6" fill="#42a8db"/><circle cx="384" cy="232" r="1.6" fill="#42a8db"/><circle cx="400" cy="237" r="1.6" fill="#42a8db"/><circle cx="416" cy="242" r="1.6" fill="#42a8db"/><circle cx="432" cy="247" r="1.6" fill="#42a8db"/><circle cx="304" cy="223" r="1.6" fill="#42a8db"/><circle cx="320" cy="228" r="1.6" fill="#42a8db"/><circle cx="336" cy="233" r="1.6" fill="#42a8db"/><circle cx="352" cy="238" r="1.6" fill="#42a8db"/><circle cx="368" cy="243" r="1.6" fill="#42a8db"/><circle cx="384" cy="248" r="1.6" fill="#42a8db"/><circle cx="400" cy="253" r="1.6" fill="#42a8db"/><circle cx="416" cy="258" r="1.6" fill="#42a8db"/><circle cx="432" cy="263" r="1.6" fill="#42a8db"/><circle cx="288" cy="100" r="1.6" fill="#91ecd6"/><circle cx="304" cy="105" r="1.6" fill="#91ecd6"/><circle cx="320" cy="110" r="1.6" fill="#91ecd6"/><circle cx="336" cy="115" r="1.6" fill="#91ecd6"/><circle cx="352" cy="120" r="1.6" fill="#91ecd6"/><circle cx="368" cy="125" r="1.6" fill="#91ecd6"/><circle cx="384" cy="130" r="1.6" fill="#91ecd6"/><circle cx="400" cy="135" r="1.6" fill="#91ecd6"/><circle cx="416" cy="140" r="1.6" fill="#91ecd6"/><circle cx="288" cy="116" r="1.6" fill="#91ecd6"/><circle cx="304" cy="121" r="1.6" fill="#91ecd6"/><circle cx="320" cy="126" r="1.6" fill="#91ecd6"/><circle cx="336" cy="131" r="1.6" fill="#91ecd6"/><circle cx="352" cy="136" r="1.6" fill="#91ecd6"/><circle cx="368" cy="141" r="1.6" fill="#91ecd6"/><circle cx="384" cy="146" r="1.6" fill="#91ecd6"/><circle cx="400" cy="151" r="1.6" fill="#91ecd6"/><circle cx="416" cy="156" r="1.6" fill="#91ecd6"/><circle cx="288" cy="132" r="1.6" fill="#91ecd6"/><circle cx="304" cy="137" r="1.6" fill="#91ecd6"/><circle cx="320" cy="142" r="1.6" fill="#91ecd6"/><circle cx="336" cy="147" r="1.6" fill="#91ecd6"/><circle cx="352" cy="152" r="1.6" fill="#91ecd6"/><circle cx="368" cy="157" r="1.6" fill="#91ecd6"/><circle cx="384" cy="162" r="1.6" fill="#91ecd6"/><circle cx="400" cy="167" r="1.6" fill="#91ecd6"/><circle cx="416" cy="172" r="1.6" fill="#91ecd6"/><circle cx="288" cy="148" r="1.6" fill="#91ecd6"/><circle cx="304" cy="153" r="1.6" fill="#91ecd6"/><circle cx="320" cy="158" r="1.6" fill="#91ecd6"/><circle cx="336" cy="163" r="1.6" fill="#91ecd6"/><circle cx="352" cy="168" r="1.6" fill="#91ecd6"/><circle cx="368" cy="173" r="1.6" fill="#91ecd6"/><circle cx="384" cy="178" r="1.6" fill="#91ecd6"/><circle cx="400" cy="183" r="1.6" fill="#91ecd6"/><circle cx="416" cy="188" r="1.6" fill="#91ecd6"/><circle cx="288" cy="164" r="1.6" fill="#42a8db"/><circle cx="304" cy="169" r="1.6" fill="#42a8db"/><circle cx="320" cy="174" r="1.6" fill="#42a8db"/><circle cx="336" cy="179" r="1.6" fill="#42a8db"/><circle cx="352" cy="184" r="1.6" fill="#42a8db"/><circle cx="368" cy="189" r="1.6" fill="#42a8db"/><circle cx="384" cy="194" r="1.6" fill="#42a8db"/><circle cx="400" cy="199" r="1.6" fill="#42a8db"/><circle cx="416" cy="204" r="1.6" fill="#42a8db"/><circle cx="288" cy="180" r="1.6" fill="#42a8db"/><circle cx="304" cy="185" r="1.6" fill="#42a8db"/><circle cx="320" cy="190" r="1.6" fill="#42a8db"/><circle cx="336" cy="195" r="1.6" fill="#42a8db"/><circle cx="352" cy="200" r="1.6" fill="#42a8db"/><circle cx="368" cy="205" r="1.6" fill="#42a8db"/><circle cx="384" cy="210" r="1.6" fill="#42a8db"/><circle cx="400" cy="215" r="1.6" fill="#42a8db"/><circle cx="416" cy="220" r="1.6" fill="#42a8db"/><circle cx="288" cy="196" r="1.6" fill="#42a8db"/><circle cx="304" cy="201" r="1.6" fill="#42a8db"/><circle cx="320" cy="206" r="1.6" fill="#42a8db"/><circle cx="336" cy="211" r="1.6" fill="#42a8db"/><circle cx="352" cy="216" r="1.6" fill="#42a8db"/><circle cx="368" cy="221" r="1.6" fill="#42a8db"/><circle cx="384" cy="226" r="1.6" fill="#42a8db"/><circle cx="400" cy="231" r="1.6" fill="#42a8db"/><circle cx="416" cy="236" r="1.6" fill="#42a8db"/><circle cx="288" cy="212" r="1.6" fill="#42a8db"/><circle cx="304" cy="217" r="1.6" fill="#42a8db"/><circle cx="320" cy="222" r="1.6" fill="#42a8db"/><circle cx="336" cy="227" r="1.6" fill="#42a8db"/><circle cx="352" cy="232" r="1.6" fill="#42a8db"/><circle cx="368" cy="237" r="1.6" fill="#42a8db"/><circle cx="384" cy="242" r="1.6" fill="#42a8db"/><circle cx="400" cy="247" r="1.6" fill="#42a8db"/><circle cx="416" cy="252" r="1.6" fill="#42a8db"/><circle cx="288" cy="228" r="1.6" fill="#42a8db"/><circle cx="304" cy="233" r="1.6" fill="#42a8db"/><circle cx="320" cy="238" r="1.6" fill="#42a8db"/><circle cx="336" cy="243" r="1.6" fill="#42a8db"/><circle cx="352" cy="248" r="1.6" fill="#42a8db"/><circle cx="368" cy="253" r="1.6" fill="#42a8db"/><circle cx="384" cy="258" r="1.6" fill="#42a8db"/><circle cx="400" cy="263" r="1.6" fill="#42a8db"/><circle cx="416" cy="268" r="1.6" fill="#42a8db"/><circle cx="272" cy="105" r="1.6" fill="#91ecd6"/><circle cx="288" cy="110" r="1.6" fill="#91ecd6"/><circle cx="304" cy="115" r="1.6" fill="#91ecd6"/><circle cx="320" cy="120" r="1.6" fill="#91ecd6"/><circle cx="336" cy="125" r="1.6" fill="#91ecd6"/><circle cx="352" cy="130" r="1.6" fill="#91ecd6"/><circle cx="368" cy="135" r="1.6" fill="#91ecd6"/><circle cx="384" cy="140" r="1.6" fill="#91ecd6"/><circle cx="400" cy="145" r="1.6" fill="#91ecd6"/><circle cx="272" cy="121" r="1.6" fill="#91ecd6"/><circle cx="288" cy="126" r="1.6" fill="#91ecd6"/><circle cx="304" cy="131" r="1.6" fill="#91ecd6"/><circle cx="320" cy="136" r="1.6" fill="#91ecd6"/><circle cx="336" cy="141" r="1.6" fill="#91ecd6"/><circle cx="352" cy="146" r="1.6" fill="#91ecd6"/><circle cx="368" cy="151" r="1.6" fill="#91ecd6"/><circle cx="384" cy="156" r="1.6" fill="#91ecd6"/><circle cx="400" cy="161" r="1.6" fill="#91ecd6"/><circle cx="272" cy="137" r="1.6" fill="#91ecd6"/><circle cx="288" cy="142" r="1.6" fill="#91ecd6"/><circle cx="304" cy="147" r="1.6" fill="#91ecd6"/><circle cx="320" cy="152" r="1.6" fill="#91ecd6"/><circle cx="336" cy="157" r="1.6" fill="#91ecd6"/><circle cx="352" cy="162" r="1.6" fill="#91ecd6"/><circle cx="368" cy="167" r="1.6" fill="#91ecd6"/><circle cx="384" cy="172" r="1.6" fill="#91ecd6"/><circle cx="400" cy="177" r="1.6" fill="#91ecd6"/><circle cx="272" cy="153" r="1.6" fill="#91ecd6"/><circle cx="288" cy="158" r="1.6" fill="#91ecd6"/><circle cx="304" cy="163" r="1.6" fill="#91ecd6"/><circle cx="320" cy="168" r="1.6" fill="#91ecd6"/><circle cx="336" cy="173" r="1.6" fill="#91ecd6"/><circle cx="352" cy="178" r="1.6" fill="#91ecd6"/><circle cx="368" cy="183" r="1.6" fill="#91ecd6"/><circle cx="384" cy="188" r="1.6" fill="#91ecd6"/><circle cx="400" cy="193" r="1.6" fill="#91ecd6"/><circle cx="272" cy="169" r="1.6" fill="#42a8db"/><circle cx="288" cy="174" r="1.6" fill="#42a8db"/><circle cx="304" cy="179" r="1.6" fill="#42a8db"/><circle cx="320" cy="184" r="1.6" fill="#42a8db"/><circle cx="336" cy="189" r="1.6" fill="#42a8db"/><circle cx="352" cy="194" r="1.6" fill="#42a8db"/><circle cx="368" cy="199" r="1.6" fill="#42a8db"/><circle cx="384" cy="204" r="1.6" fill="#42a8db"/><circle cx="400" cy="209" r="1.6" fill="#42a8db"/><circle cx="272" cy="185" r="1.6" fill="#42a8db"/><circle cx="288" cy="190" r="1.6" fill="#42a8db"/><circle cx="304" cy="195" r="1.6" fill="#42a8db"/><circle cx="320" cy="200" r="1.6" fill="#42a8db"/><circle cx="336" cy="205" r="1.6" fill="#42a8db"/><circle cx="352" cy="210" r="1.6" fill="#42a8db"/><circle cx="368" cy="215" r="1.6" fill="#42a8db"/><circle cx="384" cy="220" r="1.6" fill="#42a8db"/><circle cx="400" cy="225" r="1.6" fill="#42a8db"/><circle cx="272" cy="201" r="1.6" fill="#42a8db"/><circle cx="288" cy="206" r="1.6" fill="#42a8db"/><circle cx="304" cy="211" r="1.6" fill="#42a8db"/><circle cx="320" cy="216" r="1.6" fill="#42a8db"/><circle cx="336" cy="221" r="1.6" fill="#42a8db"/><circle cx="352" cy="226" r="1.6" fill="#42a8db"/><circle cx="368" cy="231" r="1.6" fill="#42a8db"/><circle cx="384" cy="236" r="1.6" fill="#42a8db"/><circle cx="400" cy="241" r="1.6" fill="#42a8db"/><circle cx="272" cy="217" r="1.6" fill="#42a8db"/><circle cx="288" cy="222" r="1.6" fill="#42a8db"/><circle cx="304" cy="227" r="1.6" fill="#42a8db"/><circle cx="320" cy="232" r="1.6" fill="#42a8db"/><circle cx="336" cy="237" r="1.6" fill="#42a8db"/><circle cx="352" cy="242" r="1.6" fill="#42a8db"/><circle cx="368" cy="247" r="1.6" fill="#42a8db"/><circle cx="384" cy="252" r="1.6" fill="#42a8db"/><circle cx="400" cy="257" r="1.6" fill="#42a8db"/><circle cx="272" cy="233" r="1.6" fill="#42a8db"/><circle cx="288" cy="238" r="1.6" fill="#42a8db"/><circle cx="304" cy="243" r="1.6" fill="#42a8db"/><circle cx="320" cy="248" r="1.6" fill="#42a8db"/><circle cx="336" cy="253" r="1.6" fill="#42a8db"/><circle cx="352" cy="258" r="1.6" fill="#42a8db"/><circle cx="368" cy="263" r="1.6" fill="#42a8db"/><circle cx="384" cy="268" r="1.6" fill="#42a8db"/><circle cx="400" cy="273" r="1.6" fill="#42a8db"/><circle cx="256" cy="110" r="1.6" fill="#91ecd6"/><circle cx="272" cy="115" r="1.6" fill="#91ecd6"/><circle cx="288" cy="120" r="1.6" fill="#91ecd6"/><circle cx="304" cy="125" r="1.6" fill="#91ecd6"/><circle cx="320" cy="130" r="1.6" fill="#91ecd6"/><circle cx="336" cy="135" r="1.6" fill="#91ecd6"/><circle cx="352" cy="140" r="1.6" fill="#91ecd6"/><circle cx="368" cy="145" r="1.6" fill="#91ecd6"/><circle cx="384" cy="150" r="1.6" fill="#91ecd6"/><circle cx="256" cy="126" r="1.6" fill="#91ecd6"/><circle cx="272" cy="131" r="1.6" fill="#91ecd6"/><circle cx="288" cy="136" r="1.6" fill="#91ecd6"/><circle cx="304" cy="141" r="1.6" fill="#91ecd6"/><circle cx="320" cy="146" r="1.6" fill="#91ecd6"/><circle cx="336" cy="151" r="1.6" fill="#91ecd6"/><circle cx="352" cy="156" r="1.6" fill="#91ecd6"/><circle cx="368" cy="161" r="1.6" fill="#91ecd6"/><circle cx="384" cy="166" r="1.6" fill="#91ecd6"/><circle cx="256" cy="142" r="1.6" fill="#91ecd6"/><circle cx="272" cy="147" r="1.6" fill="#91ecd6"/><circle cx="288" cy="152" r="1.6" fill="#91ecd6"/><circle cx="304" cy="157" r="1.6" fill="#91ecd6"/><circle cx="320" cy="162" r="1.6" fill="#91ecd6"/><circle cx="336" cy="167" r="1.6" fill="#91ecd6"/><circle cx="352" cy="172" r="1.6" fill="#91ecd6"/><circle cx="368" cy="177" r="1.6" fill="#91ecd6"/><circle cx="384" cy="182" r="1.6" fill="#91ecd6"/><circle cx="256" cy="158" r="1.6" fill="#91ecd6"/><circle cx="272" cy="163" r="1.6" fill="#91ecd6"/><circle cx="288" cy="168" r="1.6" fill="#91ecd6"/><circle cx="304" cy="173" r="1.6" fill="#91ecd6"/><circle cx="320" cy="178" r="1.6" fill="#91ecd6"/><circle cx="336" cy="183" r="1.6" fill="#91ecd6"/><circle cx="352" cy="188" r="1.6" fill="#91ecd6"/><circle cx="368" cy="193" r="1.6" fill="#91ecd6"/><circle cx="384" cy="198" r="1.6" fill="#91ecd6"/><circle cx="256" cy="174" r="1.6" fill="#42a8db"/><circle cx="272" cy="179" r="1.6" fill="#42a8db"/><circle cx="288" cy="184" r="1.6" fill="#42a8db"/><circle cx="304" cy="189" r="1.6" fill="#42a8db"/><circle cx="320" cy="194" r="1.6" fill="#42a8db"/><circle cx="336" cy="199" r="1.6" fill="#42a8db"/><circle cx="352" cy="204" r="1.6" fill="#42a8db"/><circle cx="368" cy="209" r="1.6" fill="#42a8db"/><circle cx="384" cy="214" r="1.6" fill="#42a8db"/><circle cx="256" cy="190" r="1.6" fill="#42a8db"/><circle cx="272" cy="195" r="1.6" fill="#42a8db"/><circle cx="288" cy="200" r="1.6" fill="#42a8db"/><circle cx="304" cy="205" r="1.6" fill="#42a8db"/><circle cx="320" cy="210" r="1.6" fill="#42a8db"/><circle cx="336" cy="215" r="1.6" fill="#42a8db"/><circle cx="352" cy="220" r="1.6" fill="#42a8db"/><circle cx="368" cy="225" r="1.6" fill="#42a8db"/><circle cx="384" cy="230" r="1.6" fill="#42a8db"/><circle cx="256" cy="206" r="1.6" fill="#42a8db"/><circle cx="272" cy="211" r="1.6" fill="#42a8db"/><circle cx="288" cy="216" r="1.6" fill="#42a8db"/><circle cx="304" cy="221" r="1.6" fill="#42a8db"/><circle cx="320" cy="226" r="1.6" fill="#42a8db"/><circle cx="336" cy="231" r="1.6" fill="#42a8db"/><circle cx="352" cy="236" r="1.6" fill="#42a8db"/><circle cx="368" cy="241" r="1.6" fill="#42a8db"/><circle cx="384" cy="246" r="1.6" fill="#42a8db"/><circle cx="256" cy="222" r="1.6" fill="#42a8db"/><circle cx="272" cy="227" r="1.6" fill="#42a8db"/><circle cx="288" cy="232" r="1.6" fill="#42a8db"/><circle cx="304" cy="237" r="1.6" fill="#42a8db"/><circle cx="320" cy="242" r="1.6" fill="#42a8db"/><circle cx="336" cy="247" r="1.6" fill="#42a8db"/><circle cx="352" cy="252" r="1.6" fill="#42a8db"/><circle cx="368" cy="257" r="1.6" fill="#42a8db"/><circle cx="384" cy="262" r="1.6" fill="#42a8db"/><circle cx="256" cy="238" r="1.6" fill="#42a8db"/><circle cx="272" cy="243" r="1.6" fill="#42a8db"/><circle cx="288" cy="248" r="1.6" fill="#42a8db"/><circle cx="304" cy="253" r="1.6" fill="#42a8db"/><circle cx="320" cy="258" r="1.6" fill="#42a8db"/><circle cx="336" cy="263" r="1.6" fill="#42a8db"/><circle cx="352" cy="268" r="1.6" fill="#42a8db"/><circle cx="368" cy="273" r="1.6" fill="#42a8db"/><circle cx="384" cy="278" r="1.6" fill="#42a8db"/><circle cx="240" cy="115" r="1.6" fill="#91ecd6"/><circle cx="256" cy="120" r="1.6" fill="#91ecd6"/><circle cx="272" cy="125" r="1.6" fill="#91ecd6"/><circle cx="288" cy="130" r="1.6" fill="#91ecd6"/><circle cx="304" cy="135" r="1.6" fill="#91ecd6"/><circle cx="320" cy="140" r="1.6" fill="#91ecd6"/><circle cx="336" cy="145" r="1.6" fill="#91ecd6"/><circle cx="352" cy="150" r="1.6" fill="#91ecd6"/><circle cx="368" cy="155" r="1.6" fill="#91ecd6"/><circle cx="240" cy="131" r="1.6" fill="#91ecd6"/><circle cx="256" cy="136" r="1.6" fill="#91ecd6"/><circle cx="272" cy="141" r="1.6" fill="#91ecd6"/><circle cx="288" cy="146" r="1.6" fill="#91ecd6"/><circle cx="304" cy="151" r="1.6" fill="#91ecd6"/><circle cx="320" cy="156" r="1.6" fill="#91ecd6"/><circle cx="336" cy="161" r="1.6" fill="#91ecd6"/><circle cx="352" cy="166" r="1.6" fill="#91ecd6"/><circle cx="368" cy="171" r="1.6" fill="#91ecd6"/><circle cx="240" cy="147" r="1.6" fill="#91ecd6"/><circle cx="256" cy="152" r="1.6" fill="#91ecd6"/><circle cx="272" cy="157" r="1.6" fill="#91ecd6"/><circle cx="288" cy="162" r="1.6" fill="#91ecd6"/><circle cx="304" cy="167" r="1.6" fill="#91ecd6"/><circle cx="320" cy="172" r="1.6" fill="#91ecd6"/><circle cx="336" cy="177" r="1.6" fill="#91ecd6"/><circle cx="352" cy="182" r="1.6" fill="#91ecd6"/><circle cx="368" cy="187" r="1.6" fill="#91ecd6"/><circle cx="240" cy="163" r="1.6" fill="#91ecd6"/><circle cx="256" cy="168" r="1.6" fill="#91ecd6"/><circle cx="272" cy="173" r="1.6" fill="#91ecd6"/><circle cx="288" cy="178" r="1.6" fill="#91ecd6"/><circle cx="304" cy="183" r="1.6" fill="#91ecd6"/><circle cx="320" cy="188" r="1.6" fill="#91ecd6"/><circle cx="336" cy="193" r="1.6" fill="#91ecd6"/><circle cx="352" cy="198" r="1.6" fill="#91ecd6"/><circle cx="368" cy="203" r="1.6" fill="#91ecd6"/><circle cx="240" cy="179" r="1.6" fill="#42a8db"/><circle cx="256" cy="184" r="1.6" fill="#42a8db"/><circle cx="272" cy="189" r="1.6" fill="#42a8db"/><circle cx="288" cy="194" r="1.6" fill="#42a8db"/><circle cx="304" cy="199" r="1.6" fill="#42a8db"/><circle cx="320" cy="204" r="1.6" fill="#42a8db"/><circle cx="336" cy="209" r="1.6" fill="#42a8db"/><circle cx="352" cy="214" r="1.6" fill="#42a8db"/><circle cx="368" cy="219" r="1.6" fill="#42a8db"/><circle cx="240" cy="195" r="1.6" fill="#42a8db"/><circle cx="256" cy="200" r="1.6" fill="#42a8db"/><circle cx="272" cy="205" r="1.6" fill="#42a8db"/><circle cx="288" cy="210" r="1.6" fill="#42a8db"/><circle cx="304" cy="215" r="1.6" fill="#42a8db"/><circle cx="320" cy="220" r="1.6" fill="#42a8db"/><circle cx="336" cy="225" r="1.6" fill="#42a8db"/><circle cx="352" cy="230" r="1.6" fill="#42a8db"/><circle cx="368" cy="235" r="1.6" fill="#42a8db"/><circle cx="240" cy="211" r="1.6" fill="#42a8db"/><circle cx="256" cy="216" r="1.6" fill="#42a8db"/><circle cx="272" cy="221" r="1.6" fill="#42a8db"/><circle cx="288" cy="226" r="1.6" fill="#42a8db"/><circle cx="304" cy="231" r="1.6" fill="#42a8db"/><circle cx="320" cy="236" r="1.6" fill="#42a8db"/><circle cx="336" cy="241" r="1.6" fill="#42a8db"/><circle cx="352" cy="246" r="1.6" fill="#42a8db"/><circle cx="368" cy="251" r="1.6" fill="#42a8db"/><circle cx="240" cy="227" r="1.6" fill="#42a8db"/><circle cx="256" cy="232" r="1.6" fill="#42a8db"/><circle cx="272" cy="237" r="1.6" fill="#42a8db"/><circle cx="288" cy="242" r="1.6" fill="#42a8db"/><circle cx="304" cy="247" r="1.6" fill="#42a8db"/><circle cx="320" cy="252" r="1.6" fill="#42a8db"/><circle cx="336" cy="257" r="1.6" fill="#42a8db"/><circle cx="352" cy="262" r="1.6" fill="#42a8db"/><circle cx="368" cy="267" r="1.6" fill="#42a8db"/><circle cx="240" cy="243" r="1.6" fill="#42a8db"/><circle cx="256" cy="248" r="1.6" fill="#42a8db"/><circle cx="272" cy="253" r="1.6" fill="#42a8db"/><circle cx="288" cy="258" r="1.6" fill="#42a8db"/><circle cx="304" cy="263" r="1.6" fill="#42a8db"/><circle cx="320" cy="268" r="1.6" fill="#42a8db"/><circle cx="336" cy="273" r="1.6" fill="#42a8db"/><circle cx="352" cy="278" r="1.6" fill="#42a8db"/><circle cx="368" cy="283" r="1.6" fill="#42a8db"/><circle cx="224" cy="120" r="1.6" fill="#91ecd6"/><circle cx="240" cy="125" r="1.6" fill="#91ecd6"/><circle cx="256" cy="130" r="1.6" fill="#91ecd6"/><circle cx="272" cy="135" r="1.6" fill="#91ecd6"/><circle cx="288" cy="140" r="1.6" fill="#91ecd6"/><circle cx="304" cy="145" r="1.6" fill="#91ecd6"/><circle cx="320" cy="150" r="1.6" fill="#91ecd6"/><circle cx="336" cy="155" r="1.6" fill="#91ecd6"/><circle cx="352" cy="160" r="1.6" fill="#91ecd6"/><circle cx="224" cy="136" r="1.6" fill="#91ecd6"/><circle cx="240" cy="141" r="1.6" fill="#91ecd6"/><circle cx="256" cy="146" r="1.6" fill="#91ecd6"/><circle cx="272" cy="151" r="1.6" fill="#91ecd6"/><circle cx="288" cy="156" r="1.6" fill="#91ecd6"/><circle cx="304" cy="161" r="1.6" fill="#91ecd6"/><circle cx="320" cy="166" r="1.6" fill="#91ecd6"/><circle cx="336" cy="171" r="1.6" fill="#91ecd6"/><circle cx="352" cy="176" r="1.6" fill="#91ecd6"/><circle cx="224" cy="152" r="1.6" fill="#91ecd6"/><circle cx="240" cy="157" r="1.6" fill="#91ecd6"/><circle cx="256" cy="162" r="1.6" fill="#91ecd6"/><circle cx="272" cy="167" r="1.6" fill="#91ecd6"/><circle cx="288" cy="172" r="1.6" fill="#91ecd6"/><circle cx="304" cy="177" r="1.6" fill="#91ecd6"/><circle cx="320" cy="182" r="1.6" fill="#91ecd6"/><circle cx="336" cy="187" r="1.6" fill="#91ecd6"/><circle cx="352" cy="192" r="1.6" fill="#91ecd6"/><circle cx="224" cy="168" r="1.6" fill="#91ecd6"/><circle cx="240" cy="173" r="1.6" fill="#91ecd6"/><circle cx="256" cy="178" r="1.6" fill="#91ecd6"/><circle cx="272" cy="183" r="1.6" fill="#91ecd6"/><circle cx="288" cy="188" r="1.6" fill="#91ecd6"/><circle cx="304" cy="193" r="1.6" fill="#91ecd6"/><circle cx="320" cy="198" r="1.6" fill="#91ecd6"/><circle cx="336" cy="203" r="1.6" fill="#91ecd6"/><circle cx="352" cy="208" r="1.6" fill="#91ecd6"/><circle cx="224" cy="184" r="1.6" fill="#42a8db"/><circle cx="240" cy="189" r="1.6" fill="#42a8db"/><circle cx="256" cy="194" r="1.6" fill="#42a8db"/><circle cx="272" cy="199" r="1.6" fill="#42a8db"/><circle cx="288" cy="204" r="1.6" fill="#42a8db"/><circle cx="304" cy="209" r="1.6" fill="#42a8db"/><circle cx="320" cy="214" r="1.6" fill="#42a8db"/><circle cx="336" cy="219" r="1.6" fill="#42a8db"/><circle cx="352" cy="224" r="1.6" fill="#42a8db"/><circle cx="224" cy="200" r="1.6" fill="#42a8db"/><circle cx="240" cy="205" r="1.6" fill="#42a8db"/><circle cx="256" cy="210" r="1.6" fill="#42a8db"/><circle cx="272" cy="215" r="1.6" fill="#42a8db"/><circle cx="288" cy="220" r="1.6" fill="#42a8db"/><circle cx="304" cy="225" r="1.6" fill="#42a8db"/><circle cx="320" cy="230" r="1.6" fill="#42a8db"/><circle cx="336" cy="235" r="1.6" fill="#42a8db"/><circle cx="352" cy="240" r="1.6" fill="#42a8db"/><circle cx="224" cy="216" r="1.6" fill="#42a8db"/><circle cx="240" cy="221" r="1.6" fill="#42a8db"/><circle cx="256" cy="226" r="1.6" fill="#42a8db"/><circle cx="272" cy="231" r="1.6" fill="#42a8db"/><circle cx="288" cy="236" r="1.6" fill="#42a8db"/><circle cx="304" cy="241" r="1.6" fill="#42a8db"/><circle cx="320" cy="246" r="1.6" fill="#42a8db"/><circle cx="336" cy="251" r="1.6" fill="#42a8db"/><circle cx="352" cy="256" r="1.6" fill="#42a8db"/><circle cx="224" cy="232" r="1.6" fill="#42a8db"/><circle cx="240" cy="237" r="1.6" fill="#42a8db"/><circle cx="256" cy="242" r="1.6" fill="#42a8db"/><circle cx="272" cy="247" r="1.6" fill="#42a8db"/><circle cx="288" cy="252" r="1.6" fill="#42a8db"/><circle cx="304" cy="257" r="1.6" fill="#42a8db"/><circle cx="320" cy="262" r="1.6" fill="#42a8db"/><circle cx="336" cy="267" r="1.6" fill="#42a8db"/><circle cx="352" cy="272" r="1.6" fill="#42a8db"/><circle cx="224" cy="248" r="1.6" fill="#42a8db"/><circle cx="240" cy="253" r="1.6" fill="#42a8db"/><circle cx="256" cy="258" r="1.6" fill="#42a8db"/><circle cx="272" cy="263" r="1.6" fill="#42a8db"/><circle cx="288" cy="268" r="1.6" fill="#42a8db"/><circle cx="304" cy="273" r="1.6" fill="#42a8db"/><circle cx="320" cy="278" r="1.6" fill="#42a8db"/><circle cx="336" cy="283" r="1.6" fill="#42a8db"/><circle cx="352" cy="288" r="1.6" fill="#42a8db"/><circle cx="208" cy="125" r="1.6" fill="#91ecd6"/><circle cx="224" cy="130" r="1.6" fill="#91ecd6"/><circle cx="240" cy="135" r="1.6" fill="#91ecd6"/><circle cx="256" cy="140" r="1.6" fill="#91ecd6"/><circle cx="272" cy="145" r="1.6" fill="#91ecd6"/><circle cx="288" cy="150" r="1.6" fill="#91ecd6"/><circle cx="304" cy="155" r="1.6" fill="#91ecd6"/><circle cx="320" cy="160" r="1.6" fill="#91ecd6"/><circle cx="336" cy="165" r="1.6" fill="#91ecd6"/><circle cx="208" cy="141" r="1.6" fill="#91ecd6"/><circle cx="224" cy="146" r="1.6" fill="#91ecd6"/><circle cx="240" cy="151" r="1.6" fill="#91ecd6"/><circle cx="256" cy="156" r="1.6" fill="#91ecd6"/><circle cx="272" cy="161" r="1.6" fill="#91ecd6"/><circle cx="288" cy="166" r="1.6" fill="#91ecd6"/><circle cx="304" cy="171" r="1.6" fill="#91ecd6"/><circle cx="320" cy="176" r="1.6" fill="#91ecd6"/><circle cx="336" cy="181" r="1.6" fill="#91ecd6"/><circle cx="208" cy="157" r="1.6" fill="#91ecd6"/><circle cx="224" cy="162" r="1.6" fill="#91ecd6"/><circle cx="240" cy="167" r="1.6" fill="#91ecd6"/><circle cx="256" cy="172" r="1.6" fill="#91ecd6"/><circle cx="272" cy="177" r="1.6" fill="#91ecd6"/><circle cx="288" cy="182" r="1.6" fill="#91ecd6"/><circle cx="304" cy="187" r="1.6" fill="#91ecd6"/><circle cx="320" cy="192" r="1.6" fill="#91ecd6"/><circle cx="336" cy="197" r="1.6" fill="#91ecd6"/><circle cx="208" cy="173" r="1.6" fill="#91ecd6"/><circle cx="224" cy="178" r="1.6" fill="#91ecd6"/><circle cx="240" cy="183" r="1.6" fill="#91ecd6"/><circle cx="256" cy="188" r="1.6" fill="#91ecd6"/><circle cx="272" cy="193" r="1.6" fill="#91ecd6"/><circle cx="288" cy="198" r="1.6" fill="#91ecd6"/><circle cx="304" cy="203" r="1.6" fill="#91ecd6"/><circle cx="320" cy="208" r="1.6" fill="#91ecd6"/><circle cx="336" cy="213" r="1.6" fill="#91ecd6"/><circle cx="208" cy="189" r="1.6" fill="#42a8db"/><circle cx="224" cy="194" r="1.6" fill="#42a8db"/><circle cx="240" cy="199" r="1.6" fill="#42a8db"/><circle cx="256" cy="204" r="1.6" fill="#42a8db"/><circle cx="272" cy="209" r="1.6" fill="#42a8db"/><circle cx="288" cy="214" r="1.6" fill="#42a8db"/><circle cx="304" cy="219" r="1.6" fill="#42a8db"/><circle cx="320" cy="224" r="1.6" fill="#42a8db"/><circle cx="336" cy="229" r="1.6" fill="#42a8db"/><circle cx="208" cy="205" r="1.6" fill="#42a8db"/><circle cx="224" cy="210" r="1.6" fill="#42a8db"/><circle cx="240" cy="215" r="1.6" fill="#42a8db"/><circle cx="256" cy="220" r="1.6" fill="#42a8db"/><circle cx="272" cy="225" r="1.6" fill="#42a8db"/><circle cx="288" cy="230" r="1.6" fill="#42a8db"/><circle cx="304" cy="235" r="1.6" fill="#42a8db"/><circle cx="320" cy="240" r="1.6" fill="#42a8db"/><circle cx="336" cy="245" r="1.6" fill="#42a8db"/><circle cx="208" cy="221" r="1.6" fill="#42a8db"/><circle cx="224" cy="226" r="1.6" fill="#42a8db"/><circle cx="240" cy="231" r="1.6" fill="#42a8db"/><circle cx="256" cy="236" r="1.6" fill="#42a8db"/><circle cx="272" cy="241" r="1.6" fill="#42a8db"/><circle cx="288" cy="246" r="1.6" fill="#42a8db"/><circle cx="304" cy="251" r="1.6" fill="#42a8db"/><circle cx="320" cy="256" r="1.6" fill="#42a8db"/><circle cx="336" cy="261" r="1.6" fill="#42a8db"/><circle cx="208" cy="237" r="1.6" fill="#42a8db"/><circle cx="224" cy="242" r="1.6" fill="#42a8db"/><circle cx="240" cy="247" r="1.6" fill="#42a8db"/><circle cx="256" cy="252" r="1.6" fill="#42a8db"/><circle cx="272" cy="257" r="1.6" fill="#42a8db"/><circle cx="288" cy="262" r="1.6" fill="#42a8db"/><circle cx="304" cy="267" r="1.6" fill="#42a8db"/><circle cx="320" cy="272" r="1.6" fill="#42a8db"/><circle cx="336" cy="277" r="1.6" fill="#42a8db"/><circle cx="208" cy="253" r="1.6" fill="#42a8db"/><circle cx="224" cy="258" r="1.6" fill="#42a8db"/><circle cx="240" cy="263" r="1.6" fill="#42a8db"/><circle cx="256" cy="268" r="1.6" fill="#42a8db"/><circle cx="272" cy="273" r="1.6" fill="#42a8db"/><circle cx="288" cy="278" r="1.6" fill="#42a8db"/><circle cx="304" cy="283" r="1.6" fill="#42a8db"/><circle cx="320" cy="288" r="1.6" fill="#42a8db"/><circle cx="336" cy="293" r="1.6" fill="#42a8db"/><circle cx="192" cy="130" r="1.6" fill="#91ecd6"/><circle cx="208" cy="135" r="1.6" fill="#91ecd6"/><circle cx="224" cy="140" r="1.6" fill="#91ecd6"/><circle cx="240" cy="145" r="1.6" fill="#91ecd6"/><circle cx="256" cy="150" r="1.6" fill="#91ecd6"/><circle cx="272" cy="155" r="1.6" fill="#91ecd6"/><circle cx="288" cy="160" r="1.6" fill="#91ecd6"/><circle cx="304" cy="165" r="1.6" fill="#91ecd6"/><circle cx="320" cy="170" r="1.6" fill="#91ecd6"/><circle cx="192" cy="146" r="1.6" fill="#91ecd6"/><circle cx="208" cy="151" r="1.6" fill="#91ecd6"/><circle cx="224" cy="156" r="1.6" fill="#91ecd6"/><circle cx="240" cy="161" r="1.6" fill="#91ecd6"/><circle cx="256" cy="166" r="1.6" fill="#91ecd6"/><circle cx="272" cy="171" r="1.6" fill="#91ecd6"/><circle cx="288" cy="176" r="1.6" fill="#91ecd6"/><circle cx="304" cy="181" r="1.6" fill="#91ecd6"/><circle cx="320" cy="186" r="1.6" fill="#91ecd6"/><circle cx="192" cy="162" r="1.6" fill="#91ecd6"/><circle cx="208" cy="167" r="1.6" fill="#91ecd6"/><circle cx="224" cy="172" r="1.6" fill="#91ecd6"/><circle cx="240" cy="177" r="1.6" fill="#91ecd6"/><circle cx="256" cy="182" r="1.6" fill="#91ecd6"/><circle cx="272" cy="187" r="1.6" fill="#91ecd6"/><circle cx="288" cy="192" r="1.6" fill="#91ecd6"/><circle cx="304" cy="197" r="1.6" fill="#91ecd6"/><circle cx="320" cy="202" r="1.6" fill="#91ecd6"/><circle cx="192" cy="178" r="1.6" fill="#91ecd6"/><circle cx="208" cy="183" r="1.6" fill="#91ecd6"/><circle cx="224" cy="188" r="1.6" fill="#91ecd6"/><circle cx="240" cy="193" r="1.6" fill="#91ecd6"/><circle cx="256" cy="198" r="1.6" fill="#91ecd6"/><circle cx="272" cy="203" r="1.6" fill="#91ecd6"/><circle cx="288" cy="208" r="1.6" fill="#91ecd6"/><circle cx="304" cy="213" r="1.6" fill="#91ecd6"/><circle cx="320" cy="218" r="1.6" fill="#91ecd6"/><circle cx="192" cy="194" r="1.6" fill="#42a8db"/><circle cx="208" cy="199" r="1.6" fill="#42a8db"/><circle cx="224" cy="204" r="1.6" fill="#42a8db"/><circle cx="240" cy="209" r="1.6" fill="#42a8db"/><circle cx="256" cy="214" r="1.6" fill="#42a8db"/><circle cx="272" cy="219" r="1.6" fill="#42a8db"/><circle cx="288" cy="224" r="1.6" fill="#42a8db"/><circle cx="304" cy="229" r="1.6" fill="#42a8db"/><circle cx="320" cy="234" r="1.6" fill="#42a8db"/><circle cx="192" cy="210" r="1.6" fill="#42a8db"/><circle cx="208" cy="215" r="1.6" fill="#42a8db"/><circle cx="224" cy="220" r="1.6" fill="#42a8db"/><circle cx="240" cy="225" r="1.6" fill="#42a8db"/><circle cx="256" cy="230" r="1.6" fill="#42a8db"/><circle cx="272" cy="235" r="1.6" fill="#42a8db"/><circle cx="288" cy="240" r="1.6" fill="#42a8db"/><circle cx="304" cy="245" r="1.6" fill="#42a8db"/><circle cx="320" cy="250" r="1.6" fill="#42a8db"/><circle cx="192" cy="226" r="1.6" fill="#42a8db"/><circle cx="208" cy="231" r="1.6" fill="#42a8db"/><circle cx="224" cy="236" r="1.6" fill="#42a8db"/><circle cx="240" cy="241" r="1.6" fill="#42a8db"/><circle cx="256" cy="246" r="1.6" fill="#42a8db"/><circle cx="272" cy="251" r="1.6" fill="#42a8db"/><circle cx="288" cy="256" r="1.6" fill="#42a8db"/><circle cx="304" cy="261" r="1.6" fill="#42a8db"/><circle cx="320" cy="266" r="1.6" fill="#42a8db"/><circle cx="192" cy="242" r="1.6" fill="#42a8db"/><circle cx="208" cy="247" r="1.6" fill="#42a8db"/><circle cx="224" cy="252" r="1.6" fill="#42a8db"/><circle cx="240" cy="257" r="1.6" fill="#42a8db"/><circle cx="256" cy="262" r="1.6" fill="#42a8db"/><circle cx="272" cy="267" r="1.6" fill="#42a8db"/><circle cx="288" cy="272" r="1.6" fill="#42a8db"/><circle cx="304" cy="277" r="1.6" fill="#42a8db"/><circle cx="320" cy="282" r="1.6" fill="#42a8db"/><circle cx="192" cy="258" r="1.6" fill="#42a8db"/><circle cx="208" cy="263" r="1.6" fill="#42a8db"/><circle cx="224" cy="268" r="1.6" fill="#42a8db"/><circle cx="240" cy="273" r="1.6" fill="#42a8db"/><circle cx="256" cy="278" r="1.6" fill="#42a8db"/><circle cx="272" cy="283" r="1.6" fill="#42a8db"/><circle cx="288" cy="288" r="1.6" fill="#42a8db"/><circle cx="304" cy="293" r="1.6" fill="#42a8db"/><circle cx="320" cy="298" r="1.6" fill="#42a8db"/><text x="38" y="329" fill="#91ecd6" font-family="monospace" font-size="14">NIEDERREITER / THREE DIMENSIONS</text></svg>