<svg xmlns="http://www.w3.org/2000/svg" viewBox="0 0 800 450"><rect width="800" height="450" fill="#0a151e"/><g fill="none" stroke="#335260" stroke-width="2"><path d="M215 310V145l160-80 210 100v160l-165 75-205-90 165-75 205 90M215 145l205 90v165M420 235l165-70M375 65v160"/></g><path d="M240 265l135-65 185 88-140 64z" fill="#78d6c4" fill-opacity=".18" stroke="#9cefd2" stroke-width="2"/><g fill="#b5f4df"><ellipse cx="324" cy="250" rx="11" ry="6"/><ellipse cx="361" cy="232" rx="11" ry="6"/><ellipse cx="409" cy="237" rx="11" ry="6"/><ellipse cx="457" cy="260" rx="11" ry="6"/><ellipse cx="478" cy="288" rx="11" ry="6"/><ellipse cx="441" cy="307" rx="11" ry="6"/><ellipse cx="393" cy="301" rx="11" ry="6"/><ellipse cx="346" cy="278" rx="11" ry="6"/></g><g fill="#8baebf" font-family="monospace" font-size="15"><text x="65" y="55">3D TEXTURE / VOLUME SLICE</text><text x="65" y="415">32³ VOXELS · POINT + LINEAR SAMPLING</text></g></svg>
